<svg width="46" height="23" viewBox="0 0 46 23" fill="none" xmlns="http://www.w3.org/2000/svg">
<path d="M24.8885 14.0866C24.7766 15.2059 24.4408 16.2052 23.8812 17.0846C23.3375 17.948 22.65 18.6675 21.8186 19.2432C20.9871 19.8188 20.0517 20.2265 19.0124 20.4663C17.9731 20.7222 16.9178 20.7861 15.8466 20.6582C15.0631 20.5623 14.3516 20.4503 13.712 20.3224C13.0884 20.1945 12.5128 20.0586 11.9851 19.9147C11.4735 19.7708 11.0018 19.6189 10.5701 19.459C10.1384 19.2991 9.73066 19.1312 9.34691 18.9553C8.4675 19.6749 7.53213 20.1785 6.54079 20.4663C5.56545 20.7541 4.50216 20.8261 3.35093 20.6822C2.53547 20.5863 1.8959 20.3704 1.43221 20.0346C0.968523 19.6989 0.664727 19.3151 0.520823 18.8834C0.392909 18.4517 0.408898 18.02 0.568791 17.5883C0.728684 17.1406 1.02449 16.7728 1.4562 16.485C1.88791 16.1972 2.44753 16.0213 3.13507 15.9574C3.82261 15.8934 4.61408 16.0133 5.50948 16.3171C5.73333 16.3971 6.01315 16.517 6.34892 16.6769C6.6847 16.8368 7.02847 17.0047 7.38023 17.1805C7.732 17.3564 8.06777 17.5323 8.38756 17.7082C8.70734 17.8681 8.96317 17.996 9.15504 18.0919C10.0345 17.2445 10.8259 16.2292 11.5295 15.046C12.249 13.8468 12.9445 12.5996 13.6161 11.3045C14.3036 10.0093 15.0151 8.7222 15.7506 7.44306C16.4861 6.14792 17.3256 4.97271 18.2689 3.91742C17.0857 3.1979 15.7906 2.71822 14.3835 2.47838C12.9765 2.22255 11.5215 2.25453 10.0185 2.57432C8.9152 2.81416 7.93986 3.16592 7.09242 3.62961C6.24499 4.07731 5.53347 4.58897 4.95785 5.16458C4.38224 5.72421 3.94253 6.30782 3.63874 6.91541C3.33494 7.523 3.17505 8.10661 3.15906 8.66624C3.15906 9.20987 3.30296 9.69755 3.59077 10.1293C3.87858 10.545 4.31828 10.8408 4.90988 11.0167C5.61341 11.2405 6.229 11.2725 6.75665 11.1126C7.30028 10.9367 7.75598 10.6889 8.12373 10.3691C8.49149 10.0333 8.7633 9.67356 8.93919 9.28982C9.13106 8.90608 9.23499 8.61027 9.25098 8.40241C9.26697 8.2745 9.35491 8.22653 9.5148 8.25851C9.69068 8.2745 9.76264 8.39442 9.73066 8.61827C9.65071 9.20987 9.43486 9.73752 9.08309 10.2012C8.74732 10.6489 8.33959 11.0087 7.85991 11.2805C7.38023 11.5523 6.86058 11.7202 6.30095 11.7842C5.74133 11.8481 5.19769 11.7841 4.67005 11.5923C3.96652 11.3524 3.3909 10.9767 2.9432 10.465C2.51149 9.93739 2.23168 9.35378 2.10376 8.71421C1.99184 8.05864 2.0558 7.37111 2.29563 6.65159C2.53547 5.93207 2.99117 5.25252 3.66272 4.61295C4.33427 3.95739 5.22967 3.37378 6.34892 2.86212C7.46817 2.35047 8.85125 1.97472 10.4981 1.73488C11.9851 1.51103 13.4482 1.52702 14.8872 1.78285C16.3422 2.03867 17.6933 2.50236 18.9405 3.17392L19.5401 2.47838C19.636 2.38244 19.7719 2.27052 19.9478 2.1426C20.1397 1.9987 20.3396 1.86279 20.5474 1.73488C20.7553 1.59098 20.9471 1.46306 21.123 1.35113C21.3149 1.23921 21.4588 1.16726 21.5547 1.13528C21.9385 0.975387 22.1463 0.951402 22.1783 1.06333C22.2103 1.17525 22.0824 1.31916 21.7946 1.49504C21.6347 1.60696 21.4828 1.73488 21.3389 1.87878C21.211 2.0067 21.131 2.09464 21.099 2.1426C20.9232 2.39843 20.7393 2.66226 20.5474 2.93407C20.3555 3.20589 20.1637 3.48571 19.9718 3.77351C20.7873 4.31715 21.5228 4.94873 22.1783 5.66824C22.8339 6.37177 23.3775 7.16324 23.8092 8.04266C24.2569 8.90608 24.5767 9.84945 24.7686 10.8728C24.9605 11.8801 25.0004 12.9514 24.8885 14.0866ZM23.3775 14.1346C23.4735 13.1592 23.4495 12.2159 23.3056 11.3045C23.1617 10.3931 22.9138 9.53765 22.5621 8.73819C22.2103 7.93872 21.7626 7.19522 21.219 6.50768C20.6753 5.82014 20.0677 5.21255 19.3962 4.6849C18.6927 5.78816 17.9731 6.95538 17.2376 8.18656C16.5181 9.40175 15.7906 10.5929 15.0551 11.7602C14.3196 12.9274 13.5921 14.0306 12.8726 15.0699C12.169 16.0933 11.4895 16.9567 10.8339 17.6602C10.674 17.8361 10.5221 17.996 10.3782 18.1399C10.2343 18.2678 10.0824 18.3957 9.92253 18.5236C10.674 18.8594 11.5215 19.1632 12.4648 19.435C13.4082 19.6909 14.5274 19.8827 15.8226 20.0106C16.8619 20.1066 17.8212 20.0106 18.7007 19.7228C19.5801 19.435 20.3475 19.0193 21.0031 18.4757C21.6747 17.916 22.2103 17.2605 22.61 16.509C23.0258 15.7575 23.2816 14.966 23.3775 14.1346ZM8.53146 18.5716C7.95585 18.2998 7.38823 18.028 6.8286 17.7562C6.26897 17.4683 5.6294 17.1965 4.90988 16.9407C4.33427 16.7328 3.8386 16.6689 3.42288 16.7488C3.02315 16.8128 2.70336 16.9567 2.46352 17.1805C2.22368 17.3884 2.07178 17.6522 2.00783 17.972C1.95986 18.2918 1.99983 18.5956 2.12775 18.8834C2.25566 19.1712 2.46352 19.427 2.75133 19.6509C3.05513 19.8747 3.45486 19.9947 3.95053 20.0106C4.81395 20.0426 5.62141 19.9307 6.37291 19.6749C7.14039 19.419 7.85991 19.0513 8.53146 18.5716Z" fill="white"/>
<path d="M43.3723 15.4297C43.1164 15.9574 42.8606 16.445 42.6048 16.8927C42.3649 17.3404 42.1011 17.7721 41.8133 18.1879C41.5255 18.5876 41.1977 18.9713 40.83 19.3391C40.4622 19.7068 40.0225 20.0666 39.5108 20.4184C38.9033 20.8341 38.2317 21.1939 37.4962 21.4976C36.7767 21.8014 36.0172 22.0173 35.2177 22.1452C34.4342 22.2731 33.6108 22.2891 32.7474 22.1932C31.8999 22.0972 31.0445 21.8654 30.1811 21.4976C29.1738 21.0659 28.3663 20.4983 27.7587 19.7948C27.1671 19.0753 26.7354 18.2758 26.4636 17.3964C26.1918 16.501 26.0638 15.5576 26.0798 14.5663C26.1118 13.575 26.2477 12.5916 26.4876 11.6163C26.7434 10.6409 27.0872 9.70554 27.5189 8.81014C27.9506 7.91474 28.4463 7.11528 29.0059 6.41175C28.9099 6.04399 28.83 5.63627 28.766 5.18857C28.7021 4.72488 28.6541 4.25319 28.6221 3.77351C28.6061 3.29383 28.6141 2.81416 28.6461 2.33448C28.6941 1.83881 28.782 1.36712 28.9099 0.919424C28.9259 0.823488 28.9659 0.743542 29.0299 0.679585C29.1098 0.615627 29.1738 0.583649 29.2217 0.583649C29.2857 0.583649 29.3337 0.623622 29.3656 0.703568C29.4136 0.767526 29.4216 0.879451 29.3896 1.03934C29.2617 1.80683 29.2297 2.5983 29.2937 3.41375C29.3576 4.21322 29.4536 4.94073 29.5815 5.59629C30.8766 3.91742 32.3876 2.71023 34.1145 1.97472C35.8413 1.23921 37.6561 0.983382 39.5588 1.20723C40.726 1.33515 41.7014 1.61496 42.4849 2.04667C43.2683 2.47838 43.8679 2.99803 44.2836 3.60563C44.6994 4.19723 44.9472 4.85279 45.0272 5.57231C45.1071 6.29183 45.0271 7.01135 44.7873 7.73086C44.5635 8.43439 44.1877 9.10594 43.6601 9.74552C43.1484 10.3851 42.5008 10.9287 41.7174 11.3764C40.9339 11.8241 40.0305 12.1439 39.0072 12.3358C37.9839 12.5277 36.8566 12.5356 35.6254 12.3598C34.3783 12.1839 33.227 11.7842 32.1718 11.1606C31.1325 10.537 30.301 9.57763 29.6774 8.28249C29.5335 8.47437 29.3257 8.88209 29.0538 9.50568C28.782 10.1133 28.5262 10.8328 28.2864 11.6642C28.0465 12.4957 27.8626 13.3991 27.7347 14.3744C27.6068 15.3338 27.6228 16.2532 27.7827 17.1326C27.9426 18.012 28.2784 18.8035 28.79 19.507C29.3017 20.2105 30.0772 20.7222 31.1165 21.042C32.4116 21.4257 33.7707 21.5296 35.1937 21.3537C36.6328 21.1939 37.9519 20.7541 39.1511 20.0346C39.6787 19.7308 40.1264 19.4031 40.4942 19.0513C40.8779 18.6995 41.2217 18.3238 41.5255 17.924C41.8293 17.5243 42.1011 17.1006 42.3409 16.6529C42.5808 16.1892 42.8286 15.7015 43.0844 15.1899C43.1804 14.982 43.2843 14.9101 43.3962 14.974C43.5082 15.038 43.5002 15.1899 43.3723 15.4297ZM39.7747 2.11862C38.8793 1.99071 37.9839 2.03068 37.0885 2.23854C36.2091 2.4464 35.3536 2.79017 34.5222 3.26985C33.6907 3.74953 32.8993 4.34913 32.1478 5.06865C31.4123 5.78816 30.7487 6.60362 30.1571 7.51501C30.7007 8.89009 31.4762 9.9134 32.4835 10.585C33.5069 11.2405 34.6741 11.6402 35.9852 11.7842C37.4242 11.944 38.6794 11.8401 39.7507 11.4724C40.822 11.1046 41.6934 10.5929 42.3649 9.93739C43.0365 9.26584 43.5002 8.51434 43.756 7.6829C44.0118 6.85145 44.0358 6.05199 43.828 5.2845C43.6361 4.51702 43.2044 3.84546 42.5328 3.26985C41.8613 2.67825 40.9419 2.2945 39.7747 2.11862Z" fill="white"/>
</svg>
